<svg id="receipt-discount" xmlns="http://www.w3.org/2000/svg" width="33.878" height="33.878" viewBox="0 0 33.878 33.878">
  <path id="Vector" d="M8.469,5.646V9.062A3.4,3.4,0,0,1,4.828,12.7H0V2.837A2.85,2.85,0,0,1,2.851,0,5.639,5.639,0,0,1,8.469,5.646Z" transform="translate(22.585 2.823)" fill="none" stroke="#28579e" stroke-linecap="round" stroke-linejoin="round" stroke-width="2"/>
  <path id="Vector-2" data-name="Vector" d="M0,7.058V26.82a1.407,1.407,0,0,0,2.259,1.129l2.414-1.807c.565-.423,1.863.141,1.863.141l2.343,2.357a1.423,1.423,0,0,0,2,0l2.371-2.371a1.4,1.4,0,0,1,1.835-.127L17.5,27.949a1.415,1.415,0,0,0,2.259-1.129v-24A2.831,2.831,0,0,1,22.585,0H5.646C1.412,0,0,2.527,0,5.646Z" transform="translate(2.823 2.823)" fill="none" stroke="#28579e" stroke-linecap="round" stroke-linejoin="round" stroke-width="2"/>
  <path id="Vector-3" data-name="Vector" d="M0,7.707,7.707,0" transform="translate(8.851 11.674)" fill="none" stroke="#28579e" stroke-linecap="round" stroke-linejoin="round" stroke-width="2"/>
  <path id="Vector-4" data-name="Vector" d="M0,0H33.878V33.878H0Z" transform="translate(0 0)" fill="none" opacity="0"/>
  <path id="Vector-5" data-name="Vector" d="M.495.5H.507" transform="translate(16.338 18.556)" fill="none" stroke="#28579e" stroke-linecap="round" stroke-linejoin="round" stroke-width="2"/>
  <path id="Vector-6" data-name="Vector" d="M.495.5H.507" transform="translate(8.25 11.498)" fill="none" stroke="#28579e" stroke-linecap="round" stroke-linejoin="round" stroke-width="2"/>
</svg>
